<svg width="24" height="20" viewBox="0 0 24 20" fill="none" xmlns="http://www.w3.org/2000/svg">
<path d="M23 7C23 7 23 7.6 23 9C23 10.4 23 11 23 11" stroke="#1C274C" stroke-width="1.5" stroke-linecap="round"/>
<path d="M2.09277 6.60547C2.09277 6.60547 2.91918 6.1317 4.98267 5.74182C7.04617 5.35195 7.98847 5.49155 7.98847 5.49155" stroke="#1C274C" stroke-width="1.5" stroke-linecap="round"/>
<path d="M1.53027 13.0176C1.53027 13.0176 2.22166 12.1491 2.32029 10.0514C2.41892 7.95373 1.81206 7.0242 1.81206 7.0242" stroke="#1C274C" stroke-width="1.5" stroke-linecap="round"/>
<path d="M8.44935 5.73597C8.73554 5.20481 9.28311 4.6896 9.83069 4.43625C10.43 4.15897 11.117 4.15897 12.4909 4.15897C13.003 4.15897 13.259 4.15897 13.507 4.11709C13.7522 4.07568 13.9913 4.00396 14.2188 3.90356C14.4489 3.80201 14.6626 3.66107 15.0901 3.3792L15.3091 3.23484C17.852 1.55816 19.1235 0.719814 20.1909 1.08405C20.3955 1.15388 20.5936 1.25469 20.7705 1.37901C21.6932 2.02747 21.7633 3.53617 21.9035 6.55358C21.9555 7.67085 21.9908 8.62708 21.9908 9.15897C21.9908 9.69085 21.9555 10.6471 21.9035 11.7644C21.7633 14.7818 21.6932 16.2905 20.7705 16.9389C20.5936 17.0632 20.3955 17.1641 20.1909 17.2339C19.1235 17.5981 17.852 16.7598 15.3091 15.0831L15.0901 14.9387C14.6626 14.6569 14.4489 14.5159 14.2188 14.4144C13.9913 14.314 13.7522 14.2423 13.507 14.2008C13.259 14.159 13.003 14.159 12.4909 14.159C11.117 14.159 10.43 14.159 9.83069 13.8817C9.28311 13.6283 8.73554 13.1131 8.44935 12.582C8.13612 12.0006 8.09928 11.3962 8.0256 10.1874C8.01468 10.0082 8.00597 9.83138 8 9.65897" stroke="#1C274C" stroke-width="1.5" stroke-linecap="round"/>
<path d="M8 16C8 17.4142 8 18.1213 7.48744 18.5607C6.97487 19 6.14992 19 4.5 19C2.85008 19 2.02513 19 1.51256 18.5607C1 18.1213 1 17.4142 1 16C1 14.5858 1 13.8787 1.51256 13.4393C2.02513 13 2.85008 13 4.5 13C6.14992 13 6.97487 13 7.48744 13.4393C7.82825 13.7315 7.94245 14.142 7.98071 14.8" stroke="#1C274C" stroke-width="1.5" stroke-linecap="round"/>
</svg>
