<svg width="22" height="22" viewBox="0 0 22 22" fill="none" xmlns="http://www.w3.org/2000/svg">
<path d="M15.5568 6.0217L15.52 5.2726L15.52 5.2726L15.5568 6.0217ZM13.7 6.27079L13.4997 5.54804L13.4997 5.54804L13.7 6.27079ZM11.5219 7.27042L11.1463 6.62125L11.1463 6.62125L11.5219 7.27042ZM6.48717 6.06091L6.4324 6.80891L6.48717 6.06091ZM8 6.27079L7.82199 6.99936L7.82199 6.99936L8 6.27079ZM10.4646 7.29318L10.116 7.95725L10.116 7.95725L10.4646 7.29318ZM11.5074 15.7223L11.857 16.3858L11.857 16.3858L11.5074 15.7223ZM14 14.6852L13.822 13.9566L13.822 13.9566L14 14.6852ZM15.4901 14.477L15.5459 15.2249L15.5459 15.2249L15.4901 14.477ZM10.4926 15.7223L10.143 16.3858L10.143 16.3858L10.4926 15.7223ZM8 14.6852L8.17801 13.9566L8.17801 13.9566L8 14.6852ZM6.50991 14.477L6.45414 15.2249L6.45414 15.2249L6.50991 14.477ZM5.75 12.9108V7.49649H4.25V12.9108H5.75ZM17.75 12.9108V7.45154H16.25V12.9108H17.75ZM15.52 5.2726C14.8904 5.30352 14.1227 5.37534 13.4997 5.54804L13.9003 6.99353C14.3582 6.86663 14.9907 6.80041 15.5935 6.7708L15.52 5.2726ZM13.4997 5.54804C12.6675 5.77873 11.7018 6.29984 11.1463 6.62125L11.8975 7.91959C12.4487 7.6007 13.2696 7.16839 13.9003 6.99353L13.4997 5.54804ZM6.4324 6.80891C6.9319 6.84548 7.43898 6.90577 7.82199 6.99936L8.17801 5.54222C7.67286 5.41879 7.06744 5.35139 6.54194 5.31291L6.4324 6.80891ZM7.82199 6.99936C8.54804 7.17676 9.50348 7.63573 10.116 7.95725L10.8132 6.6291C10.1985 6.30646 9.09977 5.76744 8.17801 5.54222L7.82199 6.99936ZM11.857 16.3858C12.4666 16.0647 13.4402 15.594 14.178 15.4138L13.822 13.9566C12.8867 14.1851 11.7683 14.7371 11.1578 15.0588L11.857 16.3858ZM14.178 15.4138C14.5551 15.3216 15.0529 15.2617 15.5459 15.2249L15.4343 13.7291C14.9149 13.7678 14.3199 13.835 13.822 13.9566L14.178 15.4138ZM10.8422 15.0588C10.2317 14.7371 9.11332 14.1851 8.17801 13.9566L7.82199 15.4138C8.55979 15.594 9.53345 16.0647 10.143 16.3858L10.8422 15.0588ZM8.17801 13.9566C7.68009 13.835 7.08508 13.7678 6.56568 13.7291L6.45414 15.2249C6.94707 15.2617 7.44487 15.3216 7.82199 15.4138L8.17801 13.9566ZM16.25 12.9108C16.25 13.3157 15.9097 13.6936 15.4343 13.7291L15.5459 15.2249C16.7316 15.1365 17.75 14.1716 17.75 12.9108H16.25ZM17.75 7.45154C17.75 6.25695 16.7923 5.21011 15.52 5.2726L15.5935 6.7708C15.9314 6.7542 16.25 7.03391 16.25 7.45154H17.75ZM4.25 12.9108C4.25 14.1716 5.26836 15.1365 6.45414 15.2249L6.56568 13.7291C6.09031 13.6936 5.75 13.3157 5.75 12.9108H4.25ZM11.1578 15.0588C11.0598 15.1104 10.9402 15.1104 10.8422 15.0588L10.143 16.3858C10.6786 16.6681 11.3214 16.6681 11.857 16.3858L11.1578 15.0588ZM11.1463 6.62125C11.0434 6.68078 10.9157 6.6829 10.8132 6.6291L10.116 7.95725C10.6772 8.2518 11.3517 8.23541 11.8975 7.91959L11.1463 6.62125ZM5.75 7.49649C5.75 7.06974 6.08277 6.78331 6.4324 6.80891L6.54194 5.31291C5.248 5.21817 4.25 6.27527 4.25 7.49649H5.75Z" fill="#1C274D"/>
<path d="M11 7.58545V15.9998" stroke="#1C274D" stroke-width="1.5"/>
<path d="M21 11C21 15.714 21 18.0711 19.5355 19.5355C18.0711 21 15.714 21 11 21C6.28595 21 3.92893 21 2.46447 19.5355C1 18.0711 1 15.714 1 11C1 6.28595 1 3.92893 2.46447 2.46447C3.92893 1 6.28595 1 11 1C15.714 1 18.0711 1 19.5355 2.46447C20.5093 3.43821 20.8356 4.80655 20.9449 7" stroke="#1C274D" stroke-width="1.5" stroke-linecap="round"/>
</svg>
