<svg width="22" height="22" viewBox="0 0 22 22" fill="none" xmlns="http://www.w3.org/2000/svg">
<path d="M21 21L1 21" stroke="#1C274C" stroke-width="1.5" stroke-linecap="round"/>
<path d="M16 21V5C16 3.11438 16 2.17157 15.4142 1.58579C14.8284 1 13.8856 1 12 1H10C8.11438 1 7.17157 1 6.58579 1.58579C6 2.17157 6 3.11438 6 5V21" stroke="#1C274C" stroke-width="1.5"/>
<path d="M19.25 10.5C19.25 10.9142 19.5858 11.25 20 11.25C20.4142 11.25 20.75 10.9142 20.75 10.5H19.25ZM19.1111 7.33706L18.6945 7.96066L18.6945 7.96066L19.1111 7.33706ZM19.6629 7.88886L19.0393 8.30554L19.0393 8.30554L19.6629 7.88886ZM20.75 14.5C20.75 14.0858 20.4142 13.75 20 13.75C19.5858 13.75 19.25 14.0858 19.25 14.5H20.75ZM16.5 7.75C17.2178 7.75 17.6998 7.75091 18.0672 7.78828C18.422 7.82438 18.586 7.8882 18.6945 7.96066L19.5278 6.71346C19.1318 6.44886 18.6925 6.34415 18.219 6.29598C17.758 6.24909 17.1866 6.25 16.5 6.25V7.75ZM20.75 10.5C20.75 9.81338 20.7509 9.24196 20.704 8.78102C20.6559 8.30755 20.5511 7.86818 20.2865 7.47218L19.0393 8.30554C19.1118 8.41399 19.1756 8.57796 19.2117 8.93283C19.2491 9.30023 19.25 9.78216 19.25 10.5H20.75ZM18.6945 7.96066C18.831 8.05186 18.9481 8.16905 19.0393 8.30554L20.2865 7.47218C20.0859 7.17191 19.8281 6.91409 19.5278 6.71346L18.6945 7.96066ZM19.25 14.5V21H20.75V14.5H19.25Z" fill="#1C274C"/>
<path d="M2.88886 7.33706L3.30554 7.96066L3.30554 7.96066L2.88886 7.33706ZM2.33706 7.88886L2.96066 8.30554L2.96066 8.30554L2.33706 7.88886ZM2.75 19C2.75 18.5858 2.41421 18.25 2 18.25C1.58579 18.25 1.25 18.5858 1.25 19H2.75ZM1.25 15C1.25 15.4142 1.58579 15.75 2 15.75C2.41421 15.75 2.75 15.4142 2.75 15H1.25ZM5.5 6.25C4.81338 6.25 4.24196 6.24909 3.78102 6.29598C3.30755 6.34415 2.86818 6.44886 2.47218 6.71346L3.30554 7.96066C3.41399 7.8882 3.57796 7.82438 3.93283 7.78828C4.30023 7.75091 4.78216 7.75 5.5 7.75V6.25ZM2.75 10.5C2.75 9.78216 2.75091 9.30023 2.78828 8.93283C2.82438 8.57796 2.8882 8.41399 2.96066 8.30554L1.71346 7.47218C1.44886 7.86818 1.34415 8.30755 1.29598 8.78102C1.24909 9.24196 1.25 9.81338 1.25 10.5H2.75ZM2.47218 6.71346C2.17191 6.91409 1.91409 7.17191 1.71346 7.47218L2.96066 8.30554C3.05186 8.16905 3.16905 8.05186 3.30554 7.96066L2.47218 6.71346ZM1.25 19V21H2.75V19H1.25ZM1.25 10.5V15H2.75V10.5H1.25Z" fill="#1C274C"/>
<path d="M11 21V18" stroke="#1C274C" stroke-width="1.5" stroke-linecap="round"/>
<path d="M9 4H13" stroke="#1C274C" stroke-width="1.5" stroke-linecap="round"/>
<path d="M9 13H9.5M13 13H11.5" stroke="#1C274C" stroke-width="1.5" stroke-linecap="round"/>
<path d="M13 7H12.5M9 7H10.5" stroke="#1C274C" stroke-width="1.5" stroke-linecap="round"/>
<path d="M9 10H13" stroke="#1C274C" stroke-width="1.5" stroke-linecap="round"/>
</svg>
