<svg width="18" height="22" viewBox="0 0 18 22" fill="none" xmlns="http://www.w3.org/2000/svg">
<path d="M1 9V5C1 2.79086 2.79086 1 5 1H9H11.0633C11.6568 1 12.2197 1.26365 12.5997 1.71963L16.5364 6.44373C16.836 6.80316 17 7.25623 17 7.7241V11V17C17 19.2091 15.2091 21 13 21H5C2.79086 21 1 19.2091 1 17V14" stroke="#2B3F6C" stroke-width="1.5" stroke-linecap="round"/>
<path d="M12 2V5.18182C12 5.68495 12.2248 6.14036 12.5881 6.46955C12.9498 6.79735 13.4489 7 14 7" stroke="#2B3F6C" stroke-width="1.5" stroke-linecap="round"/>
<path d="M5 13H9" stroke="#2B3F6C" stroke-width="1.5" stroke-linecap="round"/>
<path d="M4 10L6 5" stroke="#2B3F6C" stroke-linecap="round"/>
<path d="M5 8.5L7 8.5" stroke="#2B3F6C" stroke-linecap="round"/>
<path d="M8 10L6 5" stroke="#2B3F6C" stroke-linecap="round"/>
<path d="M10 9V7" stroke="#2B3F6C" stroke-linecap="round"/>
<path d="M9 8L11 8" stroke="#2B3F6C" stroke-linecap="round"/>
<path d="M13 13H12" stroke="#2B3F6C" stroke-width="1.5" stroke-linecap="round"/>
<path d="M5 17H9" stroke="#2B3F6C" stroke-width="1.5" stroke-linecap="round"/>
</svg>
