<svg width="22" height="22" viewBox="0 0 22 22" fill="none" xmlns="http://www.w3.org/2000/svg">
<path d="M8.03125 2.84375L8.625 2.375V2.375C10.0175 1.27565 11.9825 1.27565 13.375 2.375L18.9786 6.79888C19.9394 7.55744 20.5 8.71422 20.5 9.93841V16.5C20.5 18.7091 18.7091 20.5 16.5 20.5H15C14.4477 20.5 14 20.0523 14 19.5V17.5M4.46875 5.65625L3.875 6.125L3.02142 6.79888C2.06058 7.55744 1.5 8.71422 1.5 9.93841L1.5 16.5C1.5 18.7091 3.29086 20.5 5.5 20.5H7C7.55228 20.5 8 20.0523 8 19.5V16.5C8 15.3954 8.89543 14.5 10 14.5H11" stroke="white" stroke-width="1.5" stroke-linecap="round"/>
</svg>
