<svg width="22" height="18" viewBox="0 0 22 18" fill="none" xmlns="http://www.w3.org/2000/svg">
<circle cx="8" cy="6" r="2" stroke="#1C274C" stroke-width="1.5"/>
<path d="M12 12C12 13.1046 12 14 8 14C4 14 4 13.1046 4 12C4 10.8954 5.79086 10 8 10C10.2091 10 12 10.8954 12 12Z" stroke="#1C274C" stroke-width="1.5"/>
<path d="M21 9C21 12.7712 21 14.6569 19.8284 15.8284C18.6569 17 16.7712 17 13 17H9C5.22876 17 3.34315 17 2.17157 15.8284C1 14.6569 1 12.7712 1 9C1 5.22876 1 3.34315 2.17157 2.17157C3.34315 1 5.22876 1 9 1H13C16.7712 1 18.6569 1 19.8284 2.17157C20.298 2.64118 20.5794 3.2255 20.748 4" stroke="#1C274C" stroke-width="1.5" stroke-linecap="round"/>
<path d="M18 9H14" stroke="#1C274C" stroke-width="1.5" stroke-linecap="round"/>
<path d="M18 6H13" stroke="#1C274C" stroke-width="1.5" stroke-linecap="round"/>
<path d="M18 12H15" stroke="#1C274C" stroke-width="1.5" stroke-linecap="round"/>
</svg>
