<svg width="22" height="17" viewBox="0 0 22 17" fill="none" xmlns="http://www.w3.org/2000/svg">
<path d="M7.80855 4.40426C7.80855 6.28437 9.33269 7.80851 11.2128 7.80851C13.0929 7.80851 14.6171 6.28437 14.6171 4.40426C14.6171 2.52414 13.0929 1 11.2128 1" stroke="white" stroke-width="1.5" stroke-linecap="round"/>
<path d="M5.25537 12.8594C5.25537 12.1272 5.71567 11.474 6.40524 11.2277V11.2277C9.51413 10.1174 12.9115 10.1174 16.0204 11.2277V11.2277C16.71 11.474 17.1703 12.1272 17.1703 12.8594V13.979C17.1703 14.9896 16.2752 15.7659 15.2748 15.6229L14.9412 15.5753C12.4682 15.222 9.95746 15.222 7.48442 15.5753L7.15087 15.6229C6.15044 15.7659 5.25537 14.9896 5.25537 13.979V12.8594Z" stroke="white" stroke-width="1.5"/>
<path d="M16.3191 7.90228C17.7964 7.90228 18.9939 6.70474 18.9939 5.22751C18.9939 3.75027 17.7964 2.55273 16.3191 2.55273" stroke="white" stroke-width="1.5" stroke-linecap="round"/>
<path d="M19.2486 14.0046L19.5106 14.042C20.2967 14.1543 21 13.5444 21 12.7503V11.8707C21 11.2953 20.6383 10.7821 20.0965 10.5886C19.5561 10.3956 19.0045 10.2453 18.4468 10.1377" stroke="white" stroke-width="1.5" stroke-linecap="round"/>
<path d="M5.68088 7.90228C4.20364 7.90228 3.0061 6.70474 3.0061 5.22751C3.0061 3.75027 4.20364 2.55273 5.68088 2.55273" stroke="white" stroke-width="1.5" stroke-linecap="round"/>
<path d="M2.75143 14.0046L2.48935 14.042C1.7033 14.1543 1.00003 13.5444 1.00003 12.7503V11.8707C1.00003 11.2953 1.3617 10.7821 1.9035 10.5886C2.44395 10.3956 2.99549 10.2453 3.55322 10.1377" stroke="white" stroke-width="1.5" stroke-linecap="round"/>
</svg>
